<?xml version="1.0" encoding="UTF-8"?>
<svg xmlns="http://www.w3.org/2000/svg" viewBox="0 0 548.5 800.09">
  <defs>
    <style>
      .cls-1 {
        fill: gray;
      }
    </style>
  </defs>
  <g id="Layer_4" data-name="Layer 4">
    <polygon class="cls-1" points="152.5 473.59 152.5 113.59 91.84 113.59 200.5 0 309.04 113.59 248.5 113.59 248.5 473.59 152.5 473.59"/>
  </g>
  <g id="Layer_1" data-name="Layer 1">
    <rect y="237.09" width="401" height="563" rx="72.69" ry="72.69"/>
  </g>
  <g id="Layer_3" data-name="Layer 3">
    <path d="M395.8,255.59h-116.59c-84.34,0-152.7,68.37-152.7,152.7v70.59c0,84.34,68.37,152.7,152.7,152.7h116.59c84.34,0,152.7-68.37,152.7-152.7v-70.59c0-84.34-68.37-152.7-152.7-152.7ZM485.5,468.39c0,54.24-43.97,98.2-98.2,98.2h-63.6c-54.24,0-98.2-43.97-98.2-98.2v-47.6c0-54.24,43.97-98.2,98.2-98.2h63.6c54.24,0,98.2,43.97,98.2,98.2v47.6Z"/>
  </g>
</svg>